# xmcd
#
# Track frame offsets: 
#        150
#        12605
#        21547
#        30460
#        41347
#        59945
#        69585
#        81540
#        93185
#        103387
#        114082
#        126252
#        134855
#        149120
#
# Disc length: 2119 seconds
#
# Revision: 2
# Processed by: cddbd v1.4PL0 Copyright (c) Steve Scherf et al.
# Submitted via: ExactAudioCopy v0.90b4
#
DISCID=dc08450e
DTITLE=Alan Munde and country gazette - Keep on Pushing
DYEAR=1991
DGENRE=Bluegrass
TTITLE0=Rosa Kee McFall
TTITLE1=Forgive and forget
TTITLE2=Get up there and dance
TTITLE3=Lovely, lovely world
TTITLE4=Anywhere the wind blows
TTITLE5=keep on pushing
TTITLE6=Pretty boy Floyd
TTITLE7=Picking as Snuffy's
TTITLE8=Going back to Alabam
TTITLE9=Lucky Dog
TTITLE10=marching through Georgia
TTITLE11=Live and lova
TTITLE12=We've got a good fire going on
TTITLE13=Durang's Hornpipe
EXTD=
EXTT0=
EXTT1=
EXTT2=
EXTT3=
EXTT4=
EXTT5=
EXTT6=
EXTT7=
EXTT8=
EXTT9=
EXTT10=
EXTT11=
EXTT12=
EXTT13=
PLAYORDER=
